<svg width="32" height="32" viewBox="0 0 32 32" fill="none" xmlns="http://www.w3.org/2000/svg">
<path d="M24.019 23.0765L23.0723 24.0232C22.8057 24.2899 22.3923 24.2899 22.1256 24.0232C21.859 23.7565 21.859 23.3432 22.1256 23.0765L23.0723 22.1299L20.4856 19.5432L19.539 20.4899C19.2723 20.7565 18.859 20.7565 18.5923 20.4899C18.3256 20.2232 18.3256 19.8099 18.5923 19.5432L19.539 18.5965L16.9523 16.0099L16.0056 16.9565C15.739 17.2232 15.3256 17.2232 15.059 16.9565C14.7923 16.6899 14.7923 16.2765 15.059 16.0099L16.0056 15.0632L13.4056 12.4632L12.459 13.4099C12.1923 13.6765 11.779 13.6765 11.5123 13.4099C11.2456 13.1432 11.2456 12.7299 11.5123 12.4632L12.459 11.5165L9.87232 8.92987L8.92565 9.87654C8.65898 10.1432 8.24565 10.1432 7.97898 9.87654C7.71232 9.60987 7.71232 9.19654 7.97898 8.92987L8.92565 7.9832L6.93898 5.99654C6.52565 5.5832 5.80565 5.87654 5.80565 6.47654V23.5299C5.80565 24.9965 7.00565 26.1965 8.47232 26.1965H25.5257C26.1257 26.1965 26.419 25.4765 25.9923 25.0632L24.019 23.0765ZM9.80565 20.8632V14.5165L17.4856 22.1965H11.139C10.4056 22.1965 9.80565 21.5965 9.80565 20.8632Z" fill="#333333"/>
</svg>
