<svg width="32" height="32" viewBox="0 0 32 32" fill="none" xmlns="http://www.w3.org/2000/svg">
<path d="M16 6C10.49 6 6 10.49 6 16C6 21.51 10.49 26 16 26C17.38 26 18.5 24.88 18.5 23.5C18.5 22.89 18.27 22.3 17.86 21.83C17.78 21.73 17.73 21.62 17.73 21.5C17.73 21.22 17.95 21 18.23 21H20C23.31 21 26 18.31 26 15C26 10.04 21.51 6 16 6ZM21.5 17C20.67 17 20 16.33 20 15.5C20 14.67 20.67 14 21.5 14C22.33 14 23 14.67 23 15.5C23 16.33 22.33 17 21.5 17ZM18.5 13C17.67 13 17 12.33 17 11.5C17 10.67 17.67 10 18.5 10C19.33 10 20 10.67 20 11.5C20 12.33 19.33 13 18.5 13ZM9 15.5C9 14.67 9.67 14 10.5 14C11.33 14 12 14.67 12 15.5C12 16.33 11.33 17 10.5 17C9.67 17 9 16.33 9 15.5ZM15 11.5C15 12.33 14.33 13 13.5 13C12.67 13 12 12.33 12 11.5C12 10.67 12.67 10 13.5 10C14.33 10 15 10.67 15 11.5Z" fill="#333333"/>
</svg>
