<svg width="32" height="32" viewBox="0 0 32 32" fill="none" xmlns="http://www.w3.org/2000/svg">
<path d="M16 20C17.6569 20 19 18.6569 19 17C19 15.3431 17.6569 14 16 14C14.3431 14 13 15.3431 13 17C13 18.6569 14.3431 20 16 20Z" fill="#333333"/>
<path d="M24 9H20.83L19.59 7.65C19.22 7.24 18.68 7 18.12 7H13.88C13.32 7 12.78 7.24 12.4 7.65L11.17 9H8C6.9 9 6 9.9 6 11V23C6 24.1 6.9 25 8 25H24C25.1 25 26 24.1 26 23V11C26 9.9 25.1 9 24 9ZM16 22C13.24 22 11 19.76 11 17C11 14.24 13.24 12 16 12C18.76 12 21 14.24 21 17C21 19.76 18.76 22 16 22Z" fill="#333333"/>
</svg>
