<svg width="493" height="397" viewBox="0 0 493 397" fill="none" xmlns="http://www.w3.org/2000/svg">
<g clip-path="url(#clip0_9_18)">
<g clip-path="url(#clip1_9_18)">
<path d="M246.419 212.779C313.156 210.376 379.888 207.968 446.615 205.564C434.171 184.995 431.059 167 407.273 163.898C371.674 159.269 336.074 154.625 300.47 149.981C231.414 140.984 162.337 131.987 93.2708 122.995C99.4658 132.992 196.1 214.586 246.419 212.779Z" fill="black"/>
<path d="M0.477966 0C22.1015 35.7373 131.544 113.619 162.756 117.627C248.098 128.614 333.425 139.591 418.762 150.562C402.053 122.951 398.178 104.518 367.98 96.5945C324.132 85.0662 280.265 73.533 236.412 62.0096C157.767 41.3463 79.1226 20.6732 0.477966 0Z" fill="black"/>
<path d="M311.255 277.847C362.534 266.919 413.813 255.987 465.102 245.049C455.115 228.572 455.085 218.659 436.407 219.496C406.081 220.84 375.766 222.199 345.446 223.544C289.587 226.036 233.728 228.537 177.874 231.019C184.153 237.746 271.031 286.415 311.255 277.847Z" fill="black"/>
<path d="M432.27 396.065C460.463 377.75 468.032 358.042 484.071 328.072C502.051 294.467 490.261 289.444 470.179 256.193C468.125 252.805 441.41 257.336 438.401 260.645C434.732 264.673 437.18 287.508 436.953 292.635C435.387 327.111 433.826 361.593 432.27 396.065Z" fill="black"/>
<path d="M425.711 264.255C407.022 268.239 383.34 265.195 378.573 285.081C371.812 313.328 365.05 341.59 358.284 369.837C403.816 358.958 424.125 304.316 425.711 264.255Z" fill="black"/>
<path d="M368.172 277.423C323.123 287.041 324.068 300.13 304.75 342.328C335.38 339.423 363.962 306.084 368.172 277.423Z" fill="black"/>
</g>
</g>
<defs>
<clipPath id="clip0_9_18">
<rect width="492.454" height="396.065" fill="white" transform="translate(0.477966)"/>
</clipPath>
<clipPath id="clip1_9_18">
<rect width="492.454" height="396.065" fill="white" transform="translate(0.477966)"/>
</clipPath>
</defs>
</svg>
